<?xml version="1.0" standalone="no"?>
<!DOCTYPE svg PUBLIC "-//W3C//DTD SVG 20010904//EN"
 "http://www.w3.org/TR/2001/REC-SVG-20010904/DTD/svg10.dtd">
<svg version="1.0" xmlns="http://www.w3.org/2000/svg"
 width="800.000000pt" height="893.000000pt" viewBox="0 0 800.000000 893.000000"
 preserveAspectRatio="xMidYMid meet">
<metadata>
Created by potrace 1.16, written by Peter Selinger 2001-2019
</metadata>
<g transform="translate(0.000000,893.000000) scale(0.100000,-0.100000)"
fill="#a0c4ff" stroke="none">
<path d="M4926 6694 c-99 -36 -156 -120 -156 -231 0 -54 5 -71 46 -145 240
-440 382 -877 451 -1393 23 -165 25 -721 5 -885 -70 -549 -196 -939 -471
-1454 -139 -261 192 -497 384 -274 42 50 213 391 278 558 155 394 246 772 289
1195 16 163 16 650 0 805 -58 542 -185 992 -412 1467 -91 190 -154 293 -195
322 -73 50 -147 62 -219 35z"/>
<path d="M4062 6244 c-23 -9 -60 -34 -82 -56 -85 -87 -93 -197 -22 -316 229
-387 372 -926 372 -1400 0 -492 -128 -974 -381 -1432 -38 -70 -41 -79 -37
-141 5 -85 42 -150 112 -194 43 -26 59 -30 120 -30 84 1 137 24 186 82 37 44
193 357 243 488 85 220 141 423 182 657 34 197 46 350 45 573 0 403 -63 756
-205 1150 -51 143 -205 466 -253 532 -63 85 -182 123 -280 87z"/>
<path d="M3234 5811 c-112 -28 -183 -119 -184 -238 0 -53 1 -56 102 -243 50
-92 123 -280 148 -380 40 -158 52 -244 57 -425 11 -368 -63 -672 -240 -990
-50 -90 -62 -120 -65 -166 -5 -71 9 -115 54 -168 77 -90 191 -111 293 -55 66
35 102 88 201 289 107 219 179 451 217 701 23 155 23 500 0 654 -40 265 -118
515 -229 733 -88 172 -131 233 -187 261 -53 27 -122 38 -167 27z"/>
<path d="M2358 5365 c-89 -47 -135 -133 -126 -239 4 -45 14 -69 56 -133 101
-154 145 -274 163 -446 22 -208 -43 -443 -173 -627 -90 -128 -48 -295 89 -360
67 -31 163 -26 222 13 56 37 129 138 195 272 216 435 191 947 -67 1361 -88
141 -147 184 -254 184 -41 -1 -72 -8 -105 -25z"/>
</g>
</svg>
